<svg width="564" height="120" viewBox="0 0 564 120" fill="none" xmlns="http://www.w3.org/2000/svg">
<mask id="path-1-outside-1" maskUnits="userSpaceOnUse" x="-0.632812" y="0" width="565" height="120" fill="black">
<rect fill="white" x="-0.632812" width="565" height="120"/>
<path d="M73.8125 86.2812H30.9219L21.2891 113H7.36719L46.4609 10.625H58.2734L97.4375 113H83.5859L73.8125 86.2812ZM35 75.1719H69.8047L52.3672 27.2891L35 75.1719Z"/>
<path d="M173.586 75.8047C173.586 87.4297 170.914 96.7812 165.57 103.859C160.227 110.891 153.055 114.406 144.055 114.406C134.445 114.406 127.016 111.008 121.766 104.211L121.133 113H109.18V5H122.188V45.2891C127.438 38.7734 134.68 35.5156 143.914 35.5156C153.148 35.5156 160.391 39.0078 165.641 45.9922C170.938 52.9766 173.586 62.5391 173.586 74.6797V75.8047ZM160.578 74.3281C160.578 65.4688 158.867 58.625 155.445 53.7969C152.023 48.9688 147.102 46.5547 140.68 46.5547C132.102 46.5547 125.938 50.5391 122.188 58.5078V91.4141C126.172 99.3828 132.383 103.367 140.82 103.367C147.055 103.367 151.906 100.953 155.375 96.125C158.844 91.2969 160.578 84.0312 160.578 74.3281Z"/>
<path d="M186.875 74.3281C186.875 62.6562 189.641 53.2812 195.172 46.2031C200.703 39.0781 207.945 35.5156 216.898 35.5156C225.805 35.5156 232.859 38.5625 238.062 44.6562V5H251.07V113H239.117L238.484 104.844C233.281 111.219 226.039 114.406 216.758 114.406C207.945 114.406 200.75 110.797 195.172 103.578C189.641 96.3594 186.875 86.9375 186.875 75.3125V74.3281ZM199.883 75.8047C199.883 84.4297 201.664 91.1797 205.227 96.0547C208.789 100.93 213.711 103.367 219.992 103.367C228.242 103.367 234.266 99.6641 238.062 92.2578V57.3125C234.172 50.1406 228.195 46.5547 220.133 46.5547C213.758 46.5547 208.789 49.0156 205.227 53.9375C201.664 58.8594 199.883 66.1484 199.883 75.8047Z"/>
<path d="M318.289 105.477C313.227 111.43 305.797 114.406 296 114.406C287.891 114.406 281.703 112.062 277.438 107.375C273.219 102.641 271.086 95.6562 271.039 86.4219V36.9219H284.047V86.0703C284.047 97.6016 288.734 103.367 298.109 103.367C308.047 103.367 314.656 99.6641 317.938 92.2578V36.9219H330.945V113H318.57L318.289 105.477Z"/>
<path d="M364.906 113H351.898V5H364.906V113Z"/>
<path d="M399.922 113H386.914V5H399.922V113Z"/>
<path d="M467.773 113C467.023 111.5 466.414 108.828 465.945 104.984C459.898 111.266 452.68 114.406 444.289 114.406C436.789 114.406 430.625 112.297 425.797 108.078C421.016 103.812 418.625 98.4219 418.625 91.9062C418.625 83.9844 421.625 77.8438 427.625 73.4844C433.672 69.0781 442.156 66.875 453.078 66.875H465.734V60.8984C465.734 56.3516 464.375 52.7422 461.656 50.0703C458.938 47.3516 454.93 45.9922 449.633 45.9922C444.992 45.9922 441.102 47.1641 437.961 49.5078C434.82 51.8516 433.25 54.6875 433.25 58.0156H420.172C420.172 54.2188 421.508 50.5625 424.18 47.0469C426.898 43.4844 430.555 40.6719 435.148 38.6094C439.789 36.5469 444.875 35.5156 450.406 35.5156C459.172 35.5156 466.039 37.7188 471.008 42.125C475.977 46.4844 478.555 52.5078 478.742 60.1953V95.2109C478.742 102.195 479.633 107.75 481.414 111.875V113H467.773ZM446.188 103.086C450.266 103.086 454.133 102.031 457.789 99.9219C461.445 97.8125 464.094 95.0703 465.734 91.6953V76.0859H455.539C439.602 76.0859 431.633 80.75 431.633 90.0781C431.633 94.1562 432.992 97.3438 435.711 99.6406C438.43 101.938 441.922 103.086 446.188 103.086Z"/>
<path d="M512.141 46.1328C517.906 39.0547 525.406 35.5156 534.641 35.5156C550.719 35.5156 558.828 44.5859 558.969 62.7266V113H545.961V62.6562C545.914 57.1719 544.648 53.1172 542.164 50.4922C539.727 47.8672 535.906 46.5547 530.703 46.5547C526.484 46.5547 522.781 47.6797 519.594 49.9297C516.406 52.1797 513.922 55.1328 512.141 58.7891V113H499.133V5H512.141V46.1328Z"/>
</mask>
<path d="M73.8125 86.2812H30.9219L21.2891 113H7.36719L46.4609 10.625H58.2734L97.4375 113H83.5859L73.8125 86.2812ZM35 75.1719H69.8047L52.3672 27.2891L35 75.1719Z" stroke="white" stroke-width="10" mask="url(#path-1-outside-1)"/>
<path d="M173.586 75.8047C173.586 87.4297 170.914 96.7812 165.57 103.859C160.227 110.891 153.055 114.406 144.055 114.406C134.445 114.406 127.016 111.008 121.766 104.211L121.133 113H109.18V5H122.188V45.2891C127.438 38.7734 134.68 35.5156 143.914 35.5156C153.148 35.5156 160.391 39.0078 165.641 45.9922C170.938 52.9766 173.586 62.5391 173.586 74.6797V75.8047ZM160.578 74.3281C160.578 65.4688 158.867 58.625 155.445 53.7969C152.023 48.9688 147.102 46.5547 140.68 46.5547C132.102 46.5547 125.938 50.5391 122.188 58.5078V91.4141C126.172 99.3828 132.383 103.367 140.82 103.367C147.055 103.367 151.906 100.953 155.375 96.125C158.844 91.2969 160.578 84.0312 160.578 74.3281Z" stroke="white" stroke-width="10" mask="url(#path-1-outside-1)"/>
<path d="M186.875 74.3281C186.875 62.6562 189.641 53.2812 195.172 46.2031C200.703 39.0781 207.945 35.5156 216.898 35.5156C225.805 35.5156 232.859 38.5625 238.062 44.6562V5H251.07V113H239.117L238.484 104.844C233.281 111.219 226.039 114.406 216.758 114.406C207.945 114.406 200.75 110.797 195.172 103.578C189.641 96.3594 186.875 86.9375 186.875 75.3125V74.3281ZM199.883 75.8047C199.883 84.4297 201.664 91.1797 205.227 96.0547C208.789 100.93 213.711 103.367 219.992 103.367C228.242 103.367 234.266 99.6641 238.062 92.2578V57.3125C234.172 50.1406 228.195 46.5547 220.133 46.5547C213.758 46.5547 208.789 49.0156 205.227 53.9375C201.664 58.8594 199.883 66.1484 199.883 75.8047Z" stroke="white" stroke-width="10" mask="url(#path-1-outside-1)"/>
<path d="M318.289 105.477C313.227 111.43 305.797 114.406 296 114.406C287.891 114.406 281.703 112.062 277.438 107.375C273.219 102.641 271.086 95.6562 271.039 86.4219V36.9219H284.047V86.0703C284.047 97.6016 288.734 103.367 298.109 103.367C308.047 103.367 314.656 99.6641 317.938 92.2578V36.9219H330.945V113H318.57L318.289 105.477Z" stroke="white" stroke-width="10" mask="url(#path-1-outside-1)"/>
<path d="M364.906 113H351.898V5H364.906V113Z" stroke="white" stroke-width="10" mask="url(#path-1-outside-1)"/>
<path d="M399.922 113H386.914V5H399.922V113Z" stroke="white" stroke-width="10" mask="url(#path-1-outside-1)"/>
<path d="M467.773 113C467.023 111.5 466.414 108.828 465.945 104.984C459.898 111.266 452.68 114.406 444.289 114.406C436.789 114.406 430.625 112.297 425.797 108.078C421.016 103.812 418.625 98.4219 418.625 91.9062C418.625 83.9844 421.625 77.8438 427.625 73.4844C433.672 69.0781 442.156 66.875 453.078 66.875H465.734V60.8984C465.734 56.3516 464.375 52.7422 461.656 50.0703C458.938 47.3516 454.93 45.9922 449.633 45.9922C444.992 45.9922 441.102 47.1641 437.961 49.5078C434.82 51.8516 433.25 54.6875 433.25 58.0156H420.172C420.172 54.2188 421.508 50.5625 424.18 47.0469C426.898 43.4844 430.555 40.6719 435.148 38.6094C439.789 36.5469 444.875 35.5156 450.406 35.5156C459.172 35.5156 466.039 37.7188 471.008 42.125C475.977 46.4844 478.555 52.5078 478.742 60.1953V95.2109C478.742 102.195 479.633 107.75 481.414 111.875V113H467.773ZM446.188 103.086C450.266 103.086 454.133 102.031 457.789 99.9219C461.445 97.8125 464.094 95.0703 465.734 91.6953V76.0859H455.539C439.602 76.0859 431.633 80.75 431.633 90.0781C431.633 94.1562 432.992 97.3438 435.711 99.6406C438.43 101.938 441.922 103.086 446.188 103.086Z" stroke="white" stroke-width="10" mask="url(#path-1-outside-1)"/>
<path d="M512.141 46.1328C517.906 39.0547 525.406 35.5156 534.641 35.5156C550.719 35.5156 558.828 44.5859 558.969 62.7266V113H545.961V62.6562C545.914 57.1719 544.648 53.1172 542.164 50.4922C539.727 47.8672 535.906 46.5547 530.703 46.5547C526.484 46.5547 522.781 47.6797 519.594 49.9297C516.406 52.1797 513.922 55.1328 512.141 58.7891V113H499.133V5H512.141V46.1328Z" stroke="white" stroke-width="10" mask="url(#path-1-outside-1)"/>
</svg>


